<?xml version="1.0" encoding="UTF-8"?>
<svg xmlns="http://www.w3.org/2000/svg" xmlns:xlink="http://www.w3.org/1999/xlink" viewBox="0 0 240 240" width="240px" height="240px">
<g id="surface214057076">
<path style=" stroke:none;fill-rule:nonzero;fill:rgb(94.117647%,38.431373%,57.254905%);fill-opacity:1;" d="M 199.335938 129.78125 C 191.644531 129.820312 184.984375 131.664062 179.40625 134.421875 C 177.363281 130.34375 175.296875 126.761719 174.949219 124.09375 C 174.546875 120.984375 174.074219 119.125 174.566406 115.421875 C 175.054688 111.714844 177.199219 106.464844 177.171875 106.070312 C 177.140625 105.675781 176.691406 103.789062 172.253906 103.753906 C 167.820312 103.726562 164.023438 104.609375 163.578125 105.78125 C 163.136719 106.949219 162.28125 109.585938 161.75 112.335938 C 160.976562 116.355469 152.894531 130.699219 148.308594 138.199219 C 146.808594 135.269531 145.535156 132.691406 145.269531 130.648438 C 144.863281 127.539062 144.394531 125.679688 144.886719 121.976562 C 145.375 118.269531 147.519531 113.019531 147.488281 112.625 C 147.460938 112.230469 147.011719 110.34375 142.574219 110.308594 C 138.140625 110.28125 134.34375 111.164062 133.898438 112.335938 C 133.453125 113.503906 132.976562 116.238281 132.070312 118.890625 C 131.160156 121.535156 120.425781 145.460938 117.609375 151.664062 C 116.175781 154.824219 114.929688 157.363281 114.050781 159.09375 C 114.046875 159.089844 114.046875 159.085938 114.046875 159.085938 C 114.046875 159.085938 113.988281 159.199219 113.898438 159.394531 C 113.144531 160.871094 112.699219 161.683594 112.699219 161.683594 C 112.699219 161.683594 112.703125 161.695312 112.714844 161.714844 C 112.113281 162.800781 111.476562 163.804688 111.160156 163.804688 C 110.941406 163.804688 110.496094 160.921875 111.253906 156.960938 C 112.855469 148.660156 116.691406 135.71875 116.65625 135.269531 C 116.636719 135.039062 117.371094 132.785156 114.148438 131.605469 C 111.019531 130.460938 109.90625 132.371094 109.621094 132.375 C 109.34375 132.378906 109.140625 133.050781 109.140625 133.050781 C 109.140625 133.050781 112.625 118.496094 102.488281 118.496094 C 96.148438 118.496094 87.371094 125.429688 83.046875 131.714844 C 80.316406 133.203125 74.46875 136.394531 68.273438 139.800781 C 65.894531 141.109375 63.464844 142.445312 61.160156 143.714844 C 61.003906 143.539062 60.84375 143.371094 60.683594 143.195312 C 48.390625 130.078125 25.671875 120.804688 26.628906 103.171875 C 26.980469 96.761719 29.210938 79.878906 70.296875 59.410156 C 103.949219 42.640625 130.894531 47.253906 135.550781 57.480469 C 142.199219 72.09375 121.148438 99.25 86.199219 103.171875 C 72.886719 104.664062 65.871094 99.5 64.125 97.578125 C 62.289062 95.554688 62.015625 95.464844 61.328125 95.84375 C 60.214844 96.464844 60.921875 98.25 61.328125 99.316406 C 62.375 102.03125 66.65625 106.84375 73.953125 109.246094 C 80.378906 111.355469 96.015625 112.511719 114.921875 105.195312 C 136.101562 97.003906 152.636719 74.214844 147.773438 55.171875 C 142.835938 35.800781 110.714844 29.429688 80.316406 40.230469 C 62.199219 46.660156 42.613281 56.75 28.53125 69.921875 C 11.785156 85.578125 9.113281 99.214844 10.214844 104.910156 C 14.125 125.148438 42.019531 138.328125 53.191406 148.09375 C 52.640625 148.398438 52.121094 148.683594 51.648438 148.945312 C 46.050781 151.714844 24.785156 162.84375 19.464844 174.601562 C 13.429688 187.933594 20.425781 197.503906 25.054688 198.796875 C 39.398438 202.785156 54.121094 195.605469 62.035156 183.804688 C 69.945312 172.011719 68.980469 156.644531 65.351562 149.636719 C 65.304688 149.550781 65.253906 149.464844 65.210938 149.375 C 66.65625 148.519531 68.128906 147.648438 69.589844 146.789062 C 72.441406 145.113281 75.238281 143.554688 77.664062 142.234375 C 76.304688 145.953125 75.308594 150.421875 74.796875 156.863281 C 74.183594 164.433594 77.289062 174.21875 81.351562 178.070312 C 83.140625 179.765625 85.289062 179.804688 86.648438 179.804688 C 91.375 179.804688 93.53125 175.875 95.90625 171.226562 C 98.816406 165.523438 101.398438 158.886719 101.398438 158.886719 C 101.398438 158.886719 98.160156 176.816406 106.988281 176.816406 C 110.210938 176.816406 113.445312 172.640625 114.890625 170.515625 C 114.894531 170.539062 114.894531 170.550781 114.894531 170.550781 C 114.894531 170.550781 114.980469 170.410156 115.144531 170.136719 C 115.480469 169.625 115.671875 169.300781 115.671875 169.300781 C 115.671875 169.300781 115.675781 169.265625 115.683594 169.203125 C 116.980469 166.960938 119.851562 161.839844 124.148438 153.394531 C 129.710938 142.484375 135.039062 128.816406 135.039062 128.816406 C 135.039062 128.816406 135.535156 132.15625 137.160156 137.683594 C 138.113281 140.933594 140.144531 144.53125 141.75 147.980469 C 140.460938 149.769531 139.671875 150.796875 139.671875 150.796875 C 139.671875 150.796875 139.675781 150.816406 139.691406 150.851562 C 138.660156 152.21875 137.503906 153.695312 136.296875 155.136719 C 131.90625 160.359375 126.679688 166.328125 125.980469 168.050781 C 125.15625 170.078125 125.351562 171.570312 126.945312 172.773438 C 128.109375 173.648438 130.179688 173.789062 132.34375 173.644531 C 136.289062 173.378906 139.058594 172.398438 140.429688 171.804688 C 142.566406 171.050781 145.050781 169.863281 147.378906 168.148438 C 151.683594 164.984375 154.28125 160.460938 154.03125 154.460938 C 153.890625 151.15625 152.839844 147.878906 151.503906 144.789062 C 151.894531 144.230469 152.285156 143.660156 152.679688 143.089844 C 159.464844 133.171875 164.730469 122.269531 164.730469 122.269531 C 164.730469 122.269531 165.226562 125.609375 166.851562 131.140625 C 167.671875 133.933594 169.296875 136.988281 170.753906 139.980469 C 164.375 145.164062 160.421875 151.191406 159.046875 155.140625 C 156.503906 162.449219 158.496094 165.761719 162.226562 166.515625 C 163.914062 166.855469 166.304688 166.078125 168.101562 165.320312 C 170.335938 164.578125 173.019531 163.34375 175.53125 161.5 C 179.835938 158.335938 183.976562 153.90625 183.726562 147.910156 C 183.609375 145.179688 182.871094 142.46875 181.863281 139.871094 C 187.273438 137.613281 194.273438 136.363281 203.195312 137.40625 C 222.328125 139.640625 226.078125 151.585938 225.363281 156.585938 C 224.644531 161.585938 220.636719 164.335938 219.289062 165.164062 C 217.949219 165.996094 217.539062 166.285156 217.648438 166.898438 C 217.816406 167.796875 218.433594 167.765625 219.578125 167.570312 C 221.15625 167.304688 229.625 163.503906 229.988281 154.273438 C 230.445312 142.546875 219.21875 129.675781 199.335938 129.78125 Z M 51.851562 179.5 C 45.511719 186.414062 36.660156 189.023438 32.859375 186.824219 C 28.761719 184.449219 30.386719 174.269531 38.160156 166.929688 C 42.898438 162.460938 49.019531 158.339844 53.078125 155.804688 C 54.003906 155.25 55.359375 154.433594 57.011719 153.445312 C 57.285156 153.289062 57.441406 153.203125 57.441406 153.203125 L 57.433594 153.195312 C 57.753906 153.003906 58.078125 152.808594 58.414062 152.605469 C 61.25 163.050781 58.503906 172.246094 51.851562 179.5 Z M 98.023438 148.113281 C 95.820312 153.496094 91.199219 167.265625 88.386719 166.523438 C 85.96875 165.890625 84.5 155.425781 87.90625 145.125 C 89.613281 139.941406 93.273438 133.746094 95.425781 131.339844 C 98.886719 127.46875 102.695312 126.203125 103.621094 127.773438 C 104.796875 129.773438 99.410156 144.738281 98.023438 148.113281 Z M 136.171875 166.316406 C 135.234375 166.804688 134.375 167.109375 133.980469 166.875 C 133.683594 166.699219 134.363281 166.054688 134.363281 166.054688 C 134.363281 166.054688 139.136719 160.921875 141.015625 158.585938 C 142.109375 157.226562 143.375 155.609375 144.753906 153.808594 C 144.765625 153.988281 144.769531 154.171875 144.769531 154.34375 C 144.761719 160.496094 138.820312 164.644531 136.171875 166.316406 Z M 165.554688 159.613281 C 164.855469 159.121094 164.976562 157.515625 167.269531 152.511719 C 168.171875 150.546875 170.230469 147.238281 173.800781 144.078125 C 174.214844 145.378906 174.464844 146.625 174.460938 147.785156 C 174.414062 155.523438 168.894531 158.414062 165.554688 159.613281 Z M 165.554688 159.613281 "/>
</g>
</svg>
